# xmcd
#
# Track frame offsets: 
#        187
#        12892
#        24852
#        37450
#        51037
#        61042
#        74630
#        85435
#        95132
#        105170
#        117980
#        128610
#        142230
#        150785
#        158317
#        172982
#        183170
#        193030
#        203530
#        212677
#
# Disc length: 3053 seconds
#
# Revision: 1
# Processed by: cddbd v1.5.2PL0 Copyright (c) Steve Scherf et al.
# Submitted via: ExactAudioCopy v1.0b1
#
DISCID=030beb14
DTITLE=Jerry Reed - Alabama Wild Guitar Man
DYEAR=1995
DGENRE=Country
TTITLE0=Georgia on My Mind
TTITLE1=Bake
TTITLE2=Lightning Rod
TTITLE3=Reedology
TTITLE4=Are You from Dixie (Cause I'm from Dixie Too)
TTITLE5=Two Timin'
TTITLE6=Twelve Bar Midnight
TTITLE7=Pickie, Pickie, Pickie
TTITLE8=Struttin
TTITLE9=Sittin' on Top of the World
TTITLE10=Blues Land
TTITLE11=Grab Bag
TTITLE12=Bluegrass
TTITLE13=Swarmin'
TTITLE14=Mule Skinner Blues (Blue Yodel No.8)
TTITLE15=Eight More Miles to Louisville
TTITLE16=Jerry's Breakdown
TTITLE17=Honkin'
TTITLE18=The Claw
TTITLE19=Guitar Man
EXTD=(p) 1995, BMG Music [BMG Victor BVCP-7400] [Japan]
EXTT0=
EXTT1=
EXTT2=
EXTT3=
EXTT4=
EXTT5=
EXTT6=
EXTT7=
EXTT8=
EXTT9=
EXTT10=
EXTT11=
EXTT12=
EXTT13=
EXTT14=
EXTT15=
EXTT16=
EXTT17=
EXTT18=
EXTT19=
PLAYORDER=
